<svg viewBox="0 0 1045 1068.141" xmlns="http://www.w3.org/2000/svg"><path d="M570.71 21.333c-20.044.08-37.69 10.272-48.11 25.734l-.133.207c-10.622-15.537-28.257-25.602-48.243-25.602-32.054 0-58.06 25.888-58.253 57.896v.018c0 86.926 106.497 116.053 106.497 116.053S628.963 166.51 628.963 79.585c0-32.173-26.08-58.254-58.254-58.254zm474.225 1024H0v-45.51h1044.935zM107.86 694.897h829.213v350.436H107.86zm783.703 45.512h-738.19V999.82h738.19zM238.478 434.12h567.98v306.744h-567.98zm522.468 45.51H283.99v215.723h476.956zm-391.85-219.82H675.84v219.82H369.095zm261.233 45.512H414.605v128.796H630.33zm-309.022 591.69q-5.097 0-10.286-.273c-68.963-3.487-128.193-42.072-160.513-98.13l-.506-.948-39.14-68.767 39.55-22.528 39.14 68.722c26.608 45.964 75.55 76.392 131.6 76.392 50.613 0 95.43-24.81 122.955-62.93l.305-.447 59.574-83.695 37.09 26.396-59.573 83.786c-36.01 50.144-94.155 82.42-159.84 82.42h-.38.02zm402.32 0h-.28c-65.658 0-123.78-32.258-159.384-81.79l-.4-.585-59.62-83.786 37.092-26.395 59.62 83.74c27.833 38.544 72.637 63.336 123.23 63.336 56.07 0 105.03-30.45 131.243-75.714l.388-.728 39.14-68.676 39.55 22.528-39.14 68.722c-32.835 57.02-92.084 95.608-160.598 99.06l-.467.018q-5.234.273-10.377.273zm-439.64-440.138h-45.51v-87.38h45.51zm-130.616 260.78h-45.51v-86.927h45.51zm653.085-260.78h-45.51v-87.38h45.51zm130.617 260.78h-45.51v-86.927h45.51zm-304.925 0h-45.512v-86.927h45.51zm-173.853 0h-45.51v-86.927h45.51zm86.926-435.087h-45.51V151.95h45.51z"/></svg>